<svg width="32" height="32" viewBox="0 0 32 32" fill="none" xmlns="http://www.w3.org/2000/svg">
<g clip-path="url(#clip0_712_508)">
<path d="M26 14C27.1 14 28 13.1 28 12V6C28 4.89 27.1 4 26 4H20C18.89 4 18 4.89 18 6V12C18 13.1 18.89 14 20 14H22V18.1C20.03 18.5 18.5 20.03 18.1 22H14V20C14 18.89 13.1 18 12 18H9.99998V13.9C12.7 13.34 14.45 10.7 13.89 8C13.33 5.29 10.69 3.54 7.98998 4.1C5.27998 4.65 3.52998 7.29 4.08998 9.99C4.48998 11.95 6.01998 13.48 7.97998 13.88V17.98H5.97998C4.86998 17.98 3.97998 18.87 3.97998 19.98V25.98C3.97998 27.08 4.86998 27.98 5.97998 27.98H11.98C13.08 27.98 13.98 27.08 13.98 25.98V23.98H18.08C18.63 26.68 21.27 28.43 23.98 27.87C26.68 27.31 28.43 24.67 27.87 21.97C27.46 20 25.93 18.47 23.97 18.07V13.97L26 14ZM5.99998 9C5.99998 7.34 7.33998 6 8.99998 6C10.65 6 12 7.34 12 9C12 10.65 10.65 12 8.99998 12C7.33998 12 5.99998 10.65 5.99998 9ZM12 26H5.99998V20H12V26ZM26 23C26 24.65 24.65 26 23 26C21.34 26 20 24.65 20 23C20 21.34 21.34 20 23 20C24.65 20 26 21.34 26 23ZM20 6H26V12H20V6Z" fill="#BA9A3E"/>
</g>
<defs>
<clipPath id="clip0_712_508">
<rect width="32" height="32" fill="white"/>
</clipPath>
</defs>
</svg>
