<svg width="32" height="32" viewBox="0 0 32 32" fill="none" xmlns="http://www.w3.org/2000/svg">
<g clip-path="url(#clip0_712_501)">
<path d="M22.5088 12.689L16.5088 9.13899C16.3488 9.03899 16.1688 8.99899 15.9988 8.99899C15.8188 8.99899 15.6388 9.03899 15.4888 9.13899L9.48877 12.689C9.17877 12.859 8.98877 13.189 8.98877 13.549V20.449C8.98877 20.799 9.16877 21.129 9.47877 21.309L15.4788 24.859C15.6288 24.949 15.8088 24.999 15.9788 24.999C16.1488 24.999 16.3288 24.949 16.4788 24.859L22.4788 21.309C22.7788 21.129 22.9688 20.799 22.9688 20.449V13.549C22.9688 13.189 22.7788 12.859 22.4688 12.679L22.5088 12.689ZM20.9988 19.879L15.9988 22.829L10.9988 19.869V14.109L15.9988 11.151L20.9988 14.109V19.869V19.879Z" fill="#BA9A3E"/>
<path d="M5.99998 20.184V11.07L12.2 7.39998L11.18 5.66998L4.47998 9.61998C4.16998 9.79998 3.97998 10.12 3.97998 10.48V20.16C2.80998 20.57 1.97998 21.67 1.97998 22.97C1.97998 24.624 3.32598 25.97 4.97998 25.97C6.63398 25.97 7.97998 24.624 7.97998 22.97C7.97998 21.66 7.13998 20.56 5.97998 20.15L5.99998 20.184ZM4.99998 23.994C4.43998 23.994 3.99998 23.544 3.99998 22.994C3.99998 22.434 4.43998 21.994 4.99998 21.994C5.54998 21.994 5.99998 22.434 5.99998 22.994C5.99998 23.544 5.54998 23.994 4.99998 23.994Z" fill="#BA9A3E"/>
<path d="M26.9999 20C25.3459 20 23.9999 21.346 23.9999 23C23.9999 23.35 24.0699 23.68 24.1799 24L15.9899 28.83L9.58592 25.04L8.56592 26.76L15.4759 30.844C15.6259 30.934 15.8059 30.984 15.9759 30.984C16.1459 30.984 16.3259 30.934 16.4759 30.844L25.4359 25.544C25.8859 25.804 26.4059 25.974 26.9659 25.974C28.6199 25.974 29.9659 24.628 29.9659 22.974C29.9659 21.32 28.6159 19.974 26.9659 19.974L26.9999 20ZM26.9999 24C26.4399 24 25.9999 23.55 25.9999 23C25.9999 22.44 26.4399 22 26.9999 22C27.5499 22 27.9999 22.44 27.9999 23C27.9999 23.55 27.5499 24 26.9999 24Z" fill="#BA9A3E"/>
<path d="M16 6.99999C16.73 6.99999 17.39 6.71999 17.91 6.28999L25.997 11.069V17.998H27.997V10.498C27.997 10.138 27.807 9.80799 27.497 9.62799L18.93 4.54999C18.96 4.35999 18.98 4.16999 18.98 3.97299C18.98 2.31899 17.634 0.972992 15.98 0.972992C14.326 0.972992 12.98 2.31899 12.98 3.97299C12.98 5.62699 14.326 6.97299 15.98 6.97299L16 6.99999ZM16 2.99999C16.55 2.99999 17 3.43999 17 3.99999C17 4.54999 16.55 4.99999 16 4.99999C15.44 4.99999 15 4.54999 15 3.99999C15 3.43999 15.44 2.99999 16 2.99999Z" fill="#BA9A3E"/>
</g>
<defs>
<clipPath id="clip0_712_501">
<rect width="32" height="32" fill="white"/>
</clipPath>
</defs>
</svg>
