<svg width="32" height="32" viewBox="0 0 32 32" fill="none" xmlns="http://www.w3.org/2000/svg">
<g clip-path="url(#clip0_712_493)">
<path d="M11 24H21V26H11V24Z" fill="#BA9A3E"/>
<path d="M13 28H19V30H13V28Z" fill="#BA9A3E"/>
<path d="M23.04 16C22.52 16.8 21.89 17.52 21.16 18.14C20.08 19.13 18.98 20.15 18.98 21.99H20.98C20.98 21.07 21.5 20.54 22.51 19.6C23.69 18.62 24.63 17.379 25.25 15.979L23.04 16Z" fill="#BA9A3E"/>
<path d="M15.9999 4.00019C17.2799 3.99019 18.5499 4.31019 19.6899 4.91019L20.5799 3.11019C15.6799 0.570187 9.64989 2.48019 7.10989 7.38019C6.36989 8.80019 5.97989 10.3802 5.98989 11.9802C5.84989 14.9202 7.12989 17.7602 9.44989 19.5902C10.4599 20.5202 10.9899 21.0502 10.9899 21.9702H12.9899C12.9899 20.1302 11.8699 19.1002 10.7999 18.1102C8.88989 16.6502 7.83989 14.3502 7.97989 11.9602H7.96989C7.96989 7.54019 11.5499 3.96019 15.9699 3.96019L15.9999 4.00019Z" fill="#BA9A3E"/>
<path d="M28.9998 14H18.9998C18.4398 14 17.9898 13.55 17.9898 13C17.9798 12.84 18.0198 12.69 18.0898 12.55L23.0898 2.54999V2.53999C23.3298 2.03999 23.9298 1.83999 24.4298 2.08999C24.6198 2.17999 24.7798 2.33999 24.8698 2.52999L29.8698 12.53C30.1098 13.02 29.9098 13.62 29.4198 13.87C29.2798 13.93 29.1198 13.97 28.9698 13.97L28.9998 14ZM20.6098 12H27.3698L23.9798 5.22999L20.6098 12Z" fill="#BA9A3E"/>
</g>
<defs>
<clipPath id="clip0_712_493">
<rect width="32" height="32" fill="white"/>
</clipPath>
</defs>
</svg>
