<svg width="32" height="32" viewBox="0 0 32 32" fill="none" xmlns="http://www.w3.org/2000/svg">
<g clip-path="url(#clip0_712_511)">
<path d="M23.1 16L29.4 9.7C30.2 8.9 30.2 7.7 29.4 6.9L25.2 2.7C24.4 1.9 23.2 1.9 22.4 2.7L16 8.9L9.70002 2.6C8.90002 1.8 7.70002 1.8 6.90002 2.6L2.60002 6.8C1.80002 7.6 1.80002 8.8 2.59902 9.6L8.89902 16L1.99902 22.9V30H9.09902L15.999 23.1L22.299 29.4C23.099 30.2 24.299 30.2 25.099 29.4L29.299 25.2C30.099 24.4 30.099 23.2 29.299 22.4L23.1 16ZM23.8 4L28 8.2L21.7 14.5L17.5 10.3L23.8 4ZM8.20002 28H4.00002V23.8L10.3 17.5L14.5 21.7L8.20002 28ZM23.8 28L4.00002 8.2L8.20002 4L11.7 7.5L9.60002 9.6L11 11L13.1 8.9L17.3 13.1L15.2 15.2L16.6 16.6L18.7 14.5L22.9 18.7L21 20.9L22.4 22.3L24.5 20.2L28 23.7L23.8 28Z" fill="#BA9A3E"/>
</g>
<defs>
<clipPath id="clip0_712_511">
<rect width="32" height="32" fill="white"/>
</clipPath>
</defs>
</svg>
