<svg width="103" height="41" viewBox="0 0 103 41" fill="none" xmlns="http://www.w3.org/2000/svg">
<path d="M9.66 20.626H10.878V17.392C10.878 14.732 10.724 12.954 10.416 12.058C10.136 11.134 9.576 10.672 8.736 10.672C8.232 10.672 7.77 10.812 7.35 11.092C6.958 11.344 6.762 11.708 6.762 12.184C6.762 12.632 6.846 13.094 7.014 13.57H8.064C8.288 14.158 8.4 14.872 8.4 15.712C8.4 16.524 8.05 17.238 7.35 17.854C6.65 18.442 5.768 18.736 4.704 18.736C2.296 18.736 1.092 17.574 1.092 15.25C1.092 11.806 4.018 10.084 9.87 10.084C13.202 10.084 15.498 10.658 16.758 11.806C18.046 12.926 18.69 14.998 18.69 18.022V26.548C18.69 28.004 19.096 28.732 19.908 28.732C20.86 28.732 21.42 27.29 21.588 24.406L22.218 24.448C22.106 26.912 21.644 28.606 20.832 29.53C20.02 30.454 18.69 30.916 16.842 30.916C13.482 30.916 11.55 29.88 11.046 27.808C10.682 28.872 10.136 29.656 9.408 30.16C8.68 30.664 7.616 30.916 6.216 30.916C2.072 30.916 0 29.222 0 25.834C0 23.846 0.784 22.488 2.352 21.76C3.948 21.004 6.384 20.626 9.66 20.626ZM7.98 25.792C7.98 27.248 8.05 28.186 8.19 28.606C8.358 29.026 8.652 29.236 9.072 29.236C9.52 29.236 9.926 28.886 10.29 28.186C10.682 27.458 10.878 26.464 10.878 25.204V21.298H10.584C8.848 21.298 7.98 22.572 7.98 25.12V25.792Z" fill="white"/>
<path d="M21.4968 30.916V23.398H22.0008C22.7288 25.834 23.7088 27.542 24.9408 28.522C26.1728 29.502 27.7128 29.992 29.5608 29.992C32.4168 29.992 33.8448 29.082 33.8448 27.262C33.8448 26.478 33.4948 25.89 32.7948 25.498C31.7028 24.882 30.3028 24.406 28.5948 24.07C26.6908 23.566 25.0948 22.894 23.8068 22.054C22.2668 21.046 21.4968 19.45 21.4968 17.266C21.4968 15.082 22.1688 13.346 23.5128 12.058C24.8568 10.742 26.6488 10.084 28.8888 10.084C30.2608 10.084 31.6748 10.406 33.1308 11.05C33.6628 11.274 34.0688 11.386 34.3488 11.386C34.6288 11.386 34.8668 11.288 35.0628 11.092C35.2588 10.896 35.4968 10.532 35.7768 10H36.2388V16.426H35.7348C34.3068 12.786 32.0948 10.966 29.0988 10.966C27.7828 10.966 26.8028 11.204 26.1588 11.68C25.5148 12.128 25.1928 12.702 25.1928 13.402C25.1928 13.822 25.2908 14.158 25.4868 14.41C25.6828 14.634 25.8368 14.802 25.9488 14.914C26.0608 15.026 26.2428 15.152 26.4948 15.292C26.7468 15.404 26.9568 15.502 27.1248 15.586C27.2928 15.642 27.5448 15.726 27.8808 15.838C28.2448 15.95 28.5108 16.02 28.6788 16.048C30.5828 16.524 31.9548 16.944 32.7948 17.308C33.6348 17.644 34.4328 18.064 35.1888 18.568C36.7288 19.632 37.4988 21.354 37.4988 23.734C37.4988 26.086 36.7988 27.878 35.3988 29.11C33.9988 30.314 32.0808 30.916 29.6448 30.916C27.9088 30.916 26.2288 30.51 24.6048 29.698C24.2688 29.474 24.0028 29.362 23.8068 29.362C23.1908 29.362 22.5888 29.88 22.0008 30.916H21.4968Z" fill="white"/>
<path d="M51.6846 19.198C51.6846 16.314 51.5446 14.382 51.2646 13.402C50.9846 12.394 50.4386 11.89 49.6266 11.89C48.8146 11.89 48.0866 12.422 47.4426 13.486C46.7986 14.522 46.4766 15.922 46.4766 17.686V25.372C46.4766 26.576 46.7146 27.598 47.1906 28.438C47.6666 29.278 48.3666 29.698 49.2906 29.698C50.2146 29.698 50.8446 29.082 51.1806 27.85C51.5166 26.618 51.6846 24.462 51.6846 21.382V19.198ZM46.3926 10.504V13.822C47.4846 11.33 49.4166 10.084 52.1886 10.084C54.5966 10.084 56.4586 10.952 57.7746 12.688C59.1186 14.424 59.7906 17.056 59.7906 20.584C59.7906 24.112 59.0626 26.716 57.6066 28.396C56.1786 30.076 54.0226 30.916 51.1386 30.916C49.7946 30.916 48.7866 30.748 48.1146 30.412C47.4426 30.076 46.8966 29.558 46.4766 28.858V39.736H51.8946V40.492H36.3546V39.736H38.6646V11.26H36.4386V10.504H46.3926Z" fill="white"/>
<path d="M69.992 30.916C66.38 30.916 63.664 29.992 61.844 28.144C60.052 26.268 59.156 23.678 59.156 20.374C59.156 17.042 60.164 14.494 62.18 12.73C64.224 10.966 66.814 10.084 69.95 10.084C76.306 10.084 79.358 13.276 79.106 19.66H67.262V21.298C67.262 24.042 67.612 26.114 68.312 27.514C69.012 28.914 70.23 29.614 71.966 29.614C75.214 29.614 77.342 27.878 78.35 24.406L79.106 24.532C78.574 26.548 77.608 28.116 76.208 29.236C74.836 30.356 72.764 30.916 69.992 30.916ZM67.304 18.82H71.63V16.762C71.63 14.494 71.49 12.954 71.21 12.142C70.958 11.302 70.426 10.882 69.614 10.882C68.83 10.882 68.242 11.33 67.85 12.226C67.486 13.094 67.304 14.606 67.304 16.762V18.82Z" fill="white"/>
<path d="M92.5303 11.68C91.4943 11.68 90.5843 12.352 89.8003 13.696C89.0163 15.04 88.6243 16.636 88.6243 18.484V29.74H91.6063V30.496H78.5023V29.74H80.8123V11.26H78.5023V10.504H88.6243V14.536C88.9883 13.108 89.6883 12.016 90.7243 11.26C91.7603 10.476 92.9363 10.084 94.2523 10.084C95.5683 10.084 96.6323 10.462 97.4443 11.218C98.2843 11.946 98.7043 12.996 98.7043 14.368C98.7043 15.712 98.3963 16.748 97.7803 17.476C97.1643 18.204 96.2123 18.568 94.9243 18.568C93.6643 18.568 92.7263 18.148 92.1103 17.308C91.5223 16.468 91.4523 15.306 91.9003 13.822H93.4123C94.1123 12.394 93.8183 11.68 92.5303 11.68Z" fill="white"/>
<path d="M99.112 31.308C97.908 31.308 96.998 30.958 96.382 30.258C95.794 29.53 95.5 28.662 95.5 27.654C95.5 26.618 95.808 25.75 96.424 25.05C97.068 24.35 97.964 24 99.112 24C100.26 24 101.17 24.294 101.842 24.882C102.514 25.47 102.85 26.352 102.85 27.528C102.85 28.704 102.528 29.628 101.884 30.3C101.268 30.972 100.344 31.308 99.112 31.308Z" fill="#BA9A3E"/>
</svg>
